<svg xmlns="http://www.w3.org/2000/svg" version="1.1" xmlns:xlink="http://www.w3.org/1999/xlink" width="512" height="512" x="0" y="0" viewBox="0 0 512 512" style="enable-background:new 0 0 512 512" xml:space="preserve" class=""><g><path fill="#fe9923" fill-rule="evenodd" d="M105.184 362.022c0-38.569 87.668-69.809 195.843-69.809s195.872 31.239 195.872 69.809v64.137c0 38.569-87.697 69.809-195.872 69.809s-195.843-31.239-195.843-69.809v-64.137z" clip-rule="evenodd" opacity="1" data-original="#fe9923" class=""></path><path fill="#fecd3d" fill-rule="evenodd" d="M301.027 292.213c108.174 0 195.872 31.239 195.872 69.809 0 38.54-87.697 69.809-195.872 69.809s-195.843-31.268-195.843-69.809c0-38.569 87.668-69.809 195.843-69.809z" clip-rule="evenodd" opacity="1" data-original="#fecd3d" class=""></path><path fill="#cea732" fill-rule="evenodd" d="M301.027 292.213c32.926 0 63.962 2.88 91.188 7.999v4.625c0 38.569-87.697 69.809-195.843 69.809-32.752 0-63.613-2.85-90.751-7.912a25.806 25.806 0 0 1-.436-4.712c-.001-38.569 87.667-69.809 195.842-69.809z" clip-rule="evenodd" opacity="1" data-original="#cea732"></path><path fill="#fea832" fill-rule="evenodd" d="M301.027 324.82c86.068 0 155.819 16.667 155.819 37.202 0 20.536-69.751 37.173-155.819 37.173-86.039 0-155.819-16.638-155.819-37.173s69.779-37.202 155.819-37.202z" clip-rule="evenodd" opacity="1" data-original="#fea832" class=""></path><path fill="#ce8829" fill-rule="evenodd" d="M301.027 324.82c28.505 0 55.236 1.833 78.244 5.032-28.243 26.207-99.477 44.794-182.899 44.794-15.3 0-30.163-.611-44.445-1.803-4.363-3.432-6.719-7.068-6.719-10.82 0-20.536 69.779-37.203 155.819-37.203z" clip-rule="evenodd" opacity="1" data-original="#ce8829" class=""></path><path fill="#c85929" d="M443.931 439.742v34.148c6.021-2.298 11.635-4.712 16.754-7.301v-26.876zm-43.776 46.627a419.52 419.52 0 0 1-16.725 3.142v-32.548l16.725.029zm-60.501 8.231c-5.497.407-11.082.698-16.725.931v-31.065l16.725.058zm-60.501.931c-5.672-.233-11.257-.524-16.754-.931v-30.105h16.754zm-60.53-6.021a417.735 417.735 0 0 1-16.725-3.142v-29.407l16.725.029zm-60.501-15.619c-6.021-2.298-11.635-4.712-16.754-7.301v-26.847l16.754-.029z" opacity="1" data-original="#c85929" class=""></path><path fill="#fe9923" fill-rule="evenodd" d="M.5 223.946c0-38.569 87.697-69.838 195.872-69.838 108.145 0 195.843 31.269 195.843 69.838v64.137c0 38.54-87.697 69.809-195.843 69.809C88.197 357.892.5 326.623.5 288.083v-64.137z" clip-rule="evenodd" opacity="1" data-original="#fe9923" class=""></path><path fill="#fecd3d" fill-rule="evenodd" d="M196.372 154.108c108.145 0 195.843 31.269 195.843 69.838 0 38.54-87.697 69.808-195.843 69.808C88.197 293.755.5 262.487.5 223.946c0-38.569 87.697-69.838 195.872-69.838z" clip-rule="evenodd" opacity="1" data-original="#fecd3d" class=""></path><path fill="#cea732" fill-rule="evenodd" d="M196.372 154.108c108.145 0 195.843 31.269 195.843 69.838 0 3.781-.844 7.504-2.501 11.14-20.681 2.356-42.729 3.607-65.62 3.607-119.402 0-216.203-34.497-216.203-77.051 26.555-4.8 56.63-7.534 88.481-7.534z" clip-rule="evenodd" opacity="1" data-original="#cea732"></path><path fill="#fea832" fill-rule="evenodd" d="M196.372 186.744c86.039 0 155.819 16.667 155.819 37.202s-69.78 37.173-155.819 37.173c-86.068 0-155.819-16.638-155.819-37.173s69.75-37.202 155.819-37.202z" clip-rule="evenodd" opacity="1" data-original="#fea832" class=""></path><path fill="#ce8829" fill-rule="evenodd" d="M196.372 186.744c86.039 0 155.819 16.667 155.819 37.202 0 5.148-4.421 10.093-12.42 14.543-5.177.146-10.413.204-15.678.204-90.257 0-167.57-19.692-199.973-47.703 21.611-2.705 46.161-4.246 72.252-4.246z" clip-rule="evenodd" opacity="1" data-original="#ce8829" class=""></path><path fill="#c85929" d="M339.276 301.667v34.148c6.021-2.298 11.635-4.741 16.754-7.301v-26.876zM295.5 348.293a417.756 417.756 0 0 1-16.725 3.141v-32.548l16.725.029zm-60.53 8.232c-5.497.407-11.053.698-16.725.931v-31.065l16.725.029zm-60.501.93c-5.643-.233-11.228-.524-16.754-.931V326.42l16.754-.029zm-60.53-6.021a429.544 429.544 0 0 1-16.725-3.141v-29.407l16.725.029zm-60.472-15.619c-6.05-2.298-11.635-4.741-16.783-7.301v-26.847l16.783-.029z" opacity="1" data-original="#c85929" class=""></path><path fill="#fea832" d="M496.491 234.912v15.038H511.5v14.369h-15.009v15.009h-14.369v-15.009h-15.009V249.95h15.009v-15.038zM46.079 387.444v15.009h15.009v14.369H46.079v15.009H31.71v-15.009H16.672v-14.369H31.71v-15.009zM46.079 73.45v15.009h15.009v14.369H46.079v15.038H31.71v-15.038H16.672V88.459H31.71V73.45z" opacity="1" data-original="#fea832" class=""></path><path fill="#fe9923" fill-rule="evenodd" d="M105.184 85.841c0-38.54 87.668-69.809 195.843-69.809S496.899 47.3 496.899 85.841v64.166c0 38.54-87.697 69.809-195.872 69.809s-195.843-31.268-195.843-69.809V85.841z" clip-rule="evenodd" opacity="1" data-original="#fe9923" class=""></path><path fill="#fecd3d" fill-rule="evenodd" d="M301.027 16.032c108.174 0 195.872 31.268 195.872 69.809 0 38.569-87.697 69.838-195.872 69.838S105.184 124.41 105.184 85.841c0-38.54 87.668-69.809 195.843-69.809z" clip-rule="evenodd" opacity="1" data-original="#fecd3d" class=""></path><path fill="#fea832" fill-rule="evenodd" d="M301.027 48.668c86.068 0 155.819 16.638 155.819 37.173 0 20.565-69.751 37.202-155.819 37.202-86.039 0-155.819-16.638-155.819-37.202 0-20.535 69.779-37.173 155.819-37.173z" clip-rule="evenodd" opacity="1" data-original="#fea832" class=""></path><path fill="#c85929" d="M443.931 163.591v34.148c6.021-2.298 11.635-4.741 16.754-7.301v-26.876zm-43.776 46.626a372.328 372.328 0 0 1-16.725 3.112V180.81l16.725.029zm-60.501 8.232c-5.497.378-11.082.698-16.725.931v-31.065l16.725.029zm-60.501.931a607.521 607.521 0 0 1-16.754-.931v-30.105l16.754-.029zm-60.53-6.051a373.745 373.745 0 0 1-16.725-3.112V180.81l16.725.029zm-60.501-15.59c-6.021-2.298-11.635-4.741-16.754-7.301v-26.847l16.754-.029z" opacity="1" data-original="#c85929" class=""></path></g></svg>